<svg width="31" height="28" viewBox="0 0 31 28" fill="none" xmlns="http://www.w3.org/2000/svg">
<path fill-rule="evenodd" clip-rule="evenodd" d="M13.8692 7.2505e-07H16.8173C19.3817 -3.1275e-05 21.4128 -4.7183e-05 23.0023 0.245025C24.6382 0.497217 25.9624 1.02861 27.0067 2.22599C28.0508 3.42338 28.5142 4.9417 28.7343 6.81757C28.9454 8.6188 28.9479 10.9144 28.9479 13.8059C29.4278 14.2598 29.8087 14.8451 30.0512 15.5162C30.2191 15.9808 30.2841 16.46 30.3142 16.9674C30.3433 17.4547 30.3433 18.0485 30.3433 18.7595V18.8405C30.3433 19.5515 30.3433 20.1453 30.3142 20.6326C30.2841 21.14 30.2191 21.6192 30.0512 22.0838C29.6618 23.1619 28.9147 24.0186 27.9745 24.4651C27.5693 24.6576 27.1514 24.7322 26.7089 24.7667C26.5398 24.78 26.3562 24.788 26.1572 24.7928V26.8C26.1572 27.4627 25.6887 28 25.1107 28C24.5327 28 24.0642 27.4627 24.0642 26.8V24.8H6.62233V26.8C6.62233 27.4627 6.15379 28 5.57582 28C4.99785 28 4.52931 27.4627 4.52931 26.8V24.7928C4.33035 24.788 4.14666 24.78 3.97764 24.7667C3.53518 24.7322 3.11723 24.6576 2.71203 24.4651C1.77181 24.0186 1.02481 23.1619 0.635351 22.0838C0.467518 21.6192 0.402439 21.14 0.372244 20.6326C0.343248 20.1453 0.343248 19.5515 0.343262 18.8405V18.7597C0.343248 18.0485 0.343248 17.4547 0.372244 16.9674C0.402439 16.46 0.467518 15.9808 0.635351 15.5162C0.877779 14.8451 1.25874 14.2598 1.73861 13.8059C1.73863 10.9144 1.74109 8.6188 1.95229 6.81757C2.17223 4.9417 2.63565 3.42338 3.67988 2.22599C4.72411 1.02861 6.04823 0.497217 7.68416 0.245025C9.27376 -4.7183e-05 11.3049 -3.1275e-05 13.8692 7.2505e-07ZM3.83218 12.8462C3.88037 12.8413 3.92886 12.8371 3.97764 12.8333C4.32894 12.8058 4.74355 12.801 5.22698 12.8002V11.5168C5.22694 10.0792 5.22691 8.88048 5.33849 7.92883C5.45627 6.92437 5.71534 6.01749 6.35088 5.28874C6.98642 4.55998 7.7773 4.26291 8.65329 4.12786C9.48322 3.99992 10.5286 3.99995 11.7823 4H18.9042C20.1579 3.99995 21.2033 3.99992 22.0333 4.12786C22.9093 4.26291 23.7001 4.55998 24.3356 5.28874C24.9712 6.01749 25.2303 6.92437 25.3481 7.92883C25.4597 8.88048 25.4595 10.0792 25.4595 11.5168V12.8002C25.943 12.801 26.3576 12.8058 26.7089 12.8333C26.7576 12.8371 26.8062 12.8413 26.8543 12.8462C26.851 10.3905 26.8274 8.56634 26.6598 7.13736C26.4712 5.52762 26.1172 4.60018 25.5267 3.92304C24.9361 3.2459 24.1273 2.84003 22.7235 2.62362C21.2895 2.40254 19.3993 2.4 16.7386 2.4H13.9479C11.2872 2.4 9.397 2.40254 7.96305 2.62362C6.55921 2.84003 5.75039 3.2459 5.15987 3.92304C4.56934 4.60018 4.21538 5.52762 4.02665 7.13736C3.85909 8.56634 3.83549 10.3905 3.83218 12.8462ZM23.3665 12.8V11.6C23.3665 10.0576 23.3643 9.02149 23.2737 8.24862C23.1871 7.51029 23.0375 7.19429 22.8557 6.98579C22.6739 6.77728 22.3983 6.60573 21.7543 6.50646C21.0804 6.40254 20.1768 6.4 18.8316 6.4H16.3898V12.8H23.3665ZM14.2967 12.8V6.4H11.8549C10.5098 6.4 9.60619 6.40254 8.93218 6.50646C8.28828 6.60573 8.0127 6.77728 7.83087 6.98579C7.64903 7.19429 7.49942 7.51029 7.41285 8.24862C7.32222 9.02149 7.32001 10.0576 7.32001 11.6V12.8H14.2967ZM4.12011 15.2277C3.78422 15.2539 3.62066 15.3011 3.51301 15.3523C3.08563 15.5552 2.74608 15.9446 2.56905 16.4346C2.52446 16.5581 2.48334 16.7456 2.46041 17.1307C2.43686 17.5267 2.43629 18.0381 2.43629 18.8C2.43629 19.5619 2.43686 20.0733 2.46041 20.4693C2.48334 20.8544 2.52446 21.0419 2.56905 21.1654C2.74608 21.6554 3.08563 22.0448 3.51301 22.2478C3.62066 22.2989 3.78422 22.3461 4.12011 22.3723C4.46542 22.3994 4.91136 22.4 5.57582 22.4H25.1107C25.7752 22.4 26.2211 22.3994 26.5665 22.3723C26.9023 22.3461 27.0659 22.2989 27.1736 22.2478C27.6008 22.0448 27.9405 21.6554 28.1175 21.1654C28.1621 21.0419 28.2032 20.8544 28.2261 20.4693C28.2497 20.0733 28.2502 19.5619 28.2502 18.8C28.2502 18.0381 28.2497 17.5267 28.2261 17.1307C28.2032 16.7456 28.1621 16.5581 28.1175 16.4346C27.9405 15.9446 27.6008 15.5552 27.1736 15.3523C27.0659 15.3011 26.9023 15.2539 26.5665 15.2277C26.2211 15.2006 25.7752 15.2 25.1107 15.2H5.57582C4.91136 15.2 4.46542 15.2006 4.12011 15.2277Z" fill="#C9A96E"/>
</svg>
