<svg width="18" height="24" viewBox="0 0 18 24" fill="none" xmlns="http://www.w3.org/2000/svg">
<path d="M17.0567 23.3667V19.9667V0.633382C17.0567 0.449382 16.9074 0.300049 16.7234 0.300049H3.11003C1.91536 0.300049 0.943359 1.27205 0.943359 2.46672V21.6667C0.943359 22.788 1.85536 23.7 2.97669 23.7H16.7234C16.9074 23.7 17.0567 23.5507 17.0567 23.3667ZM16.39 19.6334H3.44336V0.966716H16.39V19.6334ZM2.97669 20.3H15.222V21.3334H1.65536C1.71469 21.0954 1.83403 20.8767 2.01469 20.7C2.26669 20.442 2.60869 20.3 2.97669 20.3ZM1.61003 2.46672C1.61003 1.75472 2.11003 1.15938 2.77669 1.00672V19.6514C2.71269 19.6574 2.64736 19.6594 2.58469 19.6714C2.54269 19.6794 2.50336 19.6954 2.46203 19.706C2.37869 19.728 2.29469 19.7487 2.21536 19.7807C2.16869 19.7994 2.12603 19.826 2.08136 19.848C2.01203 19.8827 1.94203 19.9154 1.87736 19.958C1.83203 19.9874 1.79203 20.0234 1.74936 20.056C1.70336 20.092 1.65336 20.1227 1.61069 20.1627V2.46672H1.61003ZM16.39 23.0334H2.97669C2.33869 23.0334 1.80603 22.592 1.65603 22H15.5554C15.7394 22 15.8887 21.8507 15.8887 21.6667V20.3H16.39V23.0334Z" fill="#C9A96E"/>
<path d="M7.36019 8.29997H11.8602C12.0442 8.29997 12.1935 8.15063 12.1935 7.96663V3.96663C12.1935 3.78263 12.0442 3.6333 11.8602 3.6333H7.36019C7.17619 3.6333 7.02686 3.78263 7.02686 3.96663V7.96663C7.02686 8.1513 7.17619 8.29997 7.36019 8.29997ZM7.69352 4.29997H11.5269V7.6333H7.69352V4.29997Z" fill="#C9A96E"/>
<path d="M6.56868 12.3H12.7354C12.9194 12.3 13.0687 12.1506 13.0687 11.9666C13.0687 11.7826 12.9194 11.6333 12.7354 11.6333H6.56868C6.38468 11.6333 6.23535 11.7826 6.23535 11.9666C6.23535 12.1506 6.38402 12.3 6.56868 12.3Z" fill="#C9A96E"/>
</svg>
