<svg width="31" height="23" viewBox="0 0 31 23" fill="none" xmlns="http://www.w3.org/2000/svg">
<path fill-rule="evenodd" clip-rule="evenodd" d="M11.6196 17.4348C11.6238 18.6124 10.9353 19.6765 9.8757 20.1303C8.81607 20.5839 7.5943 20.3376 6.78089 19.5064C5.96746 18.6752 5.72286 17.4231 6.1613 16.3345C6.59974 15.2461 7.63471 14.5361 8.78295 14.5361C9.53389 14.5347 10.2546 14.8393 10.7866 15.3829C11.3186 15.9265 11.6182 16.6645 11.6196 17.4348Z" stroke="#C9A96E" stroke-width="4" stroke-linecap="round" stroke-linejoin="round"/>
<path fill-rule="evenodd" clip-rule="evenodd" d="M25.5517 17.4348C25.5558 18.6124 24.8674 19.6765 23.8078 20.1303C22.7482 20.5839 21.5264 20.3376 20.713 19.5064C19.8996 18.6752 19.655 17.4231 20.0934 16.3345C20.5318 15.2461 21.5668 14.5361 22.715 14.5361C23.466 14.5347 24.1867 14.8393 24.7186 15.3829C25.2506 15.9265 25.5502 16.6645 25.5517 17.4348Z" stroke="#C9A96E" stroke-width="4" stroke-linecap="round" stroke-linejoin="round"/>
<path d="M3.48139 8.32064C3.29097 8.83902 3.55688 9.41368 4.07529 9.60408C4.59372 9.79448 5.16835 9.52861 5.35876 9.01021L3.48139 8.32064ZM5.41717 5.95075L4.48659 5.58467C4.48381 5.59173 4.48111 5.59884 4.47849 5.60598L5.41717 5.95075ZM13.0625 2.66675C13.6148 2.66675 14.0625 2.21903 14.0625 1.66675C14.0625 1.11447 13.6148 0.666748 13.0625 0.666748V2.66675ZM4.42008 9.66541C4.97236 9.66541 5.42008 9.21768 5.42008 8.66541C5.42008 8.11313 4.97236 7.66541 4.42008 7.66541V9.66541ZM2.71837 8.66541L2.71077 9.66541H2.71837V8.66541ZM1.30008 10.0987L0.300075 10.0915V10.0987H1.30008ZM0.300075 12.3334C0.300075 12.8857 0.74779 13.3334 1.30008 13.3334C1.85236 13.3334 2.30008 12.8857 2.30008 12.3334H0.300075ZM4.42008 7.66541C3.86779 7.66541 3.42008 8.11313 3.42008 8.66541C3.42008 9.21768 3.86779 9.66541 4.42008 9.66541V7.66541ZM13.0625 9.66541C13.6148 9.66541 14.0625 9.21768 14.0625 8.66541C14.0625 8.11313 13.6148 7.66541 13.0625 7.66541V9.66541ZM23.3649 9.01021C23.5553 9.52861 24.13 9.79448 24.6484 9.60408C25.1668 9.41368 25.4326 8.83902 25.2422 8.32064L23.3649 9.01021ZM23.3065 5.95075L24.2452 5.60598C24.2425 5.59884 24.2398 5.59173 24.237 5.58467L23.3065 5.95075ZM13.0625 0.666748C12.5102 0.666748 12.0625 1.11447 12.0625 1.66675C12.0625 2.21903 12.5102 2.66675 13.0625 2.66675V0.666748ZM24.3036 9.66541C24.8558 9.66541 25.3036 9.21768 25.3036 8.66541C25.3036 8.11313 24.8558 7.66541 24.3036 7.66541V9.66541ZM13.0625 7.66541C12.5102 7.66541 12.0625 8.11313 12.0625 8.66541C12.0625 9.21768 12.5102 9.66541 13.0625 9.66541V7.66541ZM24.3036 7.66541C23.7513 7.66541 23.3036 8.11313 23.3036 8.66541C23.3036 9.21768 23.7513 9.66541 24.3036 9.66541V7.66541ZM28.483 8.66541V9.66541H28.4897L28.483 8.66541ZM29.9001 10.0987H30.9001V10.0915L29.9001 10.0987ZM28.9001 12.3334C28.9001 12.8857 29.3478 13.3334 29.9001 13.3334C30.4524 13.3334 30.9001 12.8857 30.9001 12.3334H28.9001ZM19.8784 18.4347C20.4306 18.4347 20.8784 17.987 20.8784 17.4347C20.8784 16.8825 20.4306 16.4347 19.8784 16.4347V18.4347ZM11.6195 16.4347C11.0672 16.4347 10.6195 16.8825 10.6195 17.4347C10.6195 17.987 11.0672 18.4347 11.6195 18.4347V16.4347ZM25.5516 16.4347C24.9993 16.4347 24.5516 16.8825 24.5516 17.4347C24.5516 17.987 24.9993 18.4347 25.5516 18.4347V16.4347ZM28.4818 17.4347L28.4894 16.4347H28.4818V17.4347ZM29.9001 16.0014L30.9001 16.0086V16.0014H29.9001ZM30.9001 12.3334C30.9001 11.7811 30.4524 11.3334 29.9001 11.3334C29.3478 11.3334 28.9001 11.7811 28.9001 12.3334H30.9001ZM5.94628 18.4347C6.49856 18.4347 6.94628 17.987 6.94628 17.4347C6.94628 16.8825 6.49856 16.4347 5.94628 16.4347V18.4347ZM2.71837 17.4347V16.4347H2.71077L2.71837 17.4347ZM1.30008 16.0014H0.300049L0.300101 16.0086L1.30008 16.0014ZM2.30008 12.3334C2.30008 11.7811 1.85236 11.3334 1.30008 11.3334C0.74779 11.3334 0.300075 11.7811 0.300075 12.3334H2.30008ZM14.0625 1.66675C14.0625 1.11447 13.6148 0.666748 13.0625 0.666748C12.5102 0.666748 12.0625 1.11447 12.0625 1.66675H14.0625ZM12.0625 8.66541C12.0625 9.21768 12.5102 9.66541 13.0625 9.66541C13.6148 9.66541 14.0625 9.21768 14.0625 8.66541H12.0625ZM1.30008 11.3334C0.74779 11.3334 0.300075 11.7811 0.300075 12.3334C0.300075 12.8857 0.74779 13.3334 1.30008 13.3334V11.3334ZM3.89097 13.3334C4.44325 13.3334 4.89097 12.8857 4.89097 12.3334C4.89097 11.7811 4.44325 11.3334 3.89097 11.3334V13.3334ZM29.9001 13.3334C30.4524 13.3334 30.9001 12.8857 30.9001 12.3334C30.9001 11.7811 30.4524 11.3334 29.9001 11.3334V13.3334ZM27.2 11.3334C26.6477 11.3334 26.2 11.7811 26.2 12.3334C26.2 12.8857 26.6477 13.3334 27.2 13.3334V11.3334ZM5.35876 9.01021L6.35585 6.29552L4.47849 5.60598L3.48139 8.32064L5.35876 9.01021ZM6.34776 6.31683C6.83423 5.08021 7.32181 4.17159 7.93109 3.56958C8.49783 3.0096 9.21847 2.66675 10.3234 2.66675V0.666748C8.71908 0.666748 7.48517 1.19856 6.52539 2.14692C5.60813 3.05324 4.99723 4.28661 4.48659 5.58467L6.34776 6.31683ZM10.3234 2.66675H13.0625V0.666748H10.3234V2.66675ZM4.42008 7.66541H2.71837V9.66541H4.42008V7.66541ZM2.72597 7.66544C2.07907 7.66052 1.46191 7.91968 1.00896 8.37741L2.4306 9.78422C2.50963 9.70435 2.61088 9.66461 2.71077 9.66541L2.72597 7.66544ZM1.00896 8.37741C0.556854 8.83435 0.304669 9.45141 0.300075 10.0915L2.30005 10.1059C2.30095 9.98008 2.35073 9.86488 2.4306 9.78422L1.00896 8.37741ZM0.300075 10.0987V12.3334H2.30008V10.0987H0.300075ZM4.42008 9.66541H13.0625V7.66541H4.42008V9.66541ZM25.2422 8.32064L24.2452 5.60598L22.3678 6.29552L23.3649 9.01021L25.2422 8.32064ZM24.237 5.58467C23.7264 4.28661 23.1156 3.05324 22.1982 2.14692C21.2385 1.19856 20.0045 0.666748 18.4002 0.666748V2.66675C19.5052 2.66675 20.2258 3.0096 20.7925 3.56958C21.4018 4.17159 21.8894 5.08021 22.3758 6.31683L24.237 5.58467ZM18.4002 0.666748H13.0625V2.66675H18.4002V0.666748ZM24.3036 7.66541H13.0625V9.66541H24.3036V7.66541ZM24.3036 9.66541H28.483V7.66541H24.3036V9.66541ZM28.4897 9.66541C28.691 9.66408 28.8981 9.83702 28.9001 10.1059L30.9001 10.0915C30.8905 8.76648 29.8293 7.65643 28.4764 7.66544L28.4897 9.66541ZM28.9001 10.0987V12.3334H30.9001V10.0987H28.9001ZM19.8784 16.4347H11.6195V18.4347H19.8784V16.4347ZM25.5516 18.4347H28.4818V16.4347H25.5516V18.4347ZM28.4741 18.4347C29.121 18.4397 29.7382 18.1805 30.1912 17.7227L28.7696 16.3159C28.6905 16.3958 28.5893 16.4355 28.4894 16.4347L28.4741 18.4347ZM30.1912 17.7227C30.6433 17.2658 30.8954 16.6487 30.9001 16.0086L28.9001 15.9942C28.8992 16.1201 28.8494 16.2353 28.7696 16.3159L30.1912 17.7227ZM30.9001 16.0014V12.3334H28.9001V16.0014H30.9001ZM5.94628 16.4347H2.71837V18.4347H5.94628V16.4347ZM2.71077 16.4347C2.61088 16.4355 2.50963 16.3958 2.4306 16.3159L1.00896 17.7227C1.46191 18.1805 2.07907 18.4397 2.72597 18.4347L2.71077 16.4347ZM2.4306 16.3159C2.35073 16.2353 2.30095 16.1201 2.30005 15.9942L0.300101 16.0086C0.304694 16.6487 0.556854 17.2658 1.00896 17.7227L2.4306 16.3159ZM2.30008 16.0014V12.3334H0.300075L0.300049 16.0014H2.30008ZM12.0625 1.66675V8.66541H14.0625V1.66675H12.0625ZM1.30008 13.3334H3.89097V11.3334H1.30008V13.3334ZM29.9001 11.3334H27.2V13.3334H29.9001V11.3334Z" fill="#C9A96E"/>
</svg>
