<svg width="32" height="32" viewBox="0 0 32 32" fill="none" xmlns="http://www.w3.org/2000/svg">
<path d="M9.33341 8H6.93341C5.43995 8 4.6932 8 4.12277 8.29065C3.621 8.54631 3.21305 8.95425 2.9574 9.45603C2.66675 10.0265 2.66675 10.7732 2.66675 12.2667V23.7333C2.66675 25.2268 2.66675 25.9736 2.9574 26.544C3.21305 27.0457 3.621 27.4537 4.12277 27.7093C4.6932 28 5.43995 28 6.93341 28H25.0667C26.5602 28 27.307 28 27.8774 27.7093C28.3791 27.4537 28.7871 27.0457 29.0427 26.544C29.3334 25.9736 29.3334 25.2268 29.3334 23.7333V12.2667C29.3334 10.7732 29.3334 10.0265 29.0427 9.45603C28.7871 8.95425 28.3791 8.54631 27.8774 8.29065C27.307 8 26.5602 8 25.0667 8H22.6667M2.66675 13.3333H5.33341M26.6667 13.3333H29.3334M2.66675 18.6667H5.33341M26.6667 18.6667H29.3334M16.0001 8V13.3333M13.3334 10.6667H18.6667M22.6667 28V8.26667C22.6667 6.7732 22.6667 6.02645 22.3761 5.45603C22.1205 4.95425 21.7125 4.54631 21.2107 4.29065C20.6403 4 19.8935 4 18.4001 4H13.6001C12.1066 4 11.3599 4 10.7894 4.29065C10.2877 4.54631 9.87972 4.95425 9.62407 5.45603C9.33341 6.02645 9.33341 6.7732 9.33341 8.26667V28H22.6667ZM18.6667 28V22.6667C18.6667 21.1939 17.4729 20 16.0001 20C14.5273 20 13.3334 21.1939 13.3334 22.6667V28H18.6667Z" stroke="#C9A96E" stroke-width="2" stroke-linecap="round" stroke-linejoin="round"/>
</svg>
