<svg width="31" height="30" viewBox="0 0 31 30" fill="none" xmlns="http://www.w3.org/2000/svg">
<path fill-rule="evenodd" clip-rule="evenodd" d="M6.89861 1.60589e-06H11.1561C11.1557 1.60589e-06 11.1565 1.60589e-06 11.1561 1.60589e-06C11.1565 1.60589e-06 11.158 1.60589e-06 11.1583 1.60589e-06H15.3423C15.342 1.60589e-06 15.3427 1.60589e-06 15.3423 1.60589e-06C15.3427 1.60589e-06 15.344 1.60589e-06 15.3442 1.60589e-06H19.5286H24.4665C25.4008 -1.23476e-05 26.1805 -4.02695e-05 26.8116 0.0641737C27.4723 0.131374 28.0853 0.277481 28.6379 0.64669C29.0569 0.926653 29.4166 1.28639 29.6965 1.70538C30.0657 2.25793 30.212 2.871 30.2791 3.53166C30.3433 4.16283 30.3433 4.94245 30.3433 5.87676V5.9837C30.3433 6.91801 30.3433 7.69765 30.2791 8.32881C30.212 8.98948 30.0657 9.60254 29.6965 10.1551C29.4166 10.5741 29.0569 10.9338 28.6379 11.2138C28.0853 11.583 27.4723 11.7291 26.8116 11.7963C26.1804 11.8605 25.4008 11.8605 24.4665 11.8605H13.9479C13.2606 11.8605 12.8503 11.8627 12.5563 11.9022C12.4216 11.9203 12.3541 11.9417 12.3237 11.9542C12.3166 11.9571 12.312 11.9593 12.3093 11.9607L12.3059 11.9627L12.304 11.9661C12.3026 11.9688 12.3003 11.9734 12.2974 11.9804C12.2849 12.0108 12.2636 12.0783 12.2455 12.2131C12.2059 12.5071 12.2037 12.9173 12.2037 13.6047V24.1232C12.2038 25.0575 12.2038 25.8371 12.1396 26.4684C12.0724 27.1291 11.9262 27.742 11.557 28.2946C11.2771 28.7136 10.9173 29.0733 10.4984 29.3533C9.9458 29.7225 9.33274 29.8687 8.67207 29.9358C8.04091 30 7.26128 30 6.32696 30H6.22003C5.28571 30 4.50609 30 3.87492 29.9358C3.21426 29.8687 2.60119 29.7225 2.04864 29.3533C1.62965 29.0733 1.26991 28.7136 0.989952 28.2946C0.620742 27.742 0.474635 27.1291 0.407435 26.4684C0.343221 25.8373 0.343249 25.0575 0.343263 24.1232V6.55535C0.343221 5.30166 0.343194 4.25623 0.454766 3.42631C0.572547 2.55032 0.831621 1.75944 1.46716 1.1239C2.1027 0.48836 2.89358 0.229285 3.76957 0.111504C4.5995 -6.81156e-05 5.64492 -4.02546e-05 6.89861 1.60589e-06ZM2.43629 11.8605H5.57582C6.1538 11.8605 6.62233 11.3919 6.62233 10.814C6.62233 10.236 6.1538 9.76744 5.57582 9.76744H2.43629V6.62791C2.43629 5.28278 2.43852 4.37921 2.52913 3.7052C2.6157 3.0613 2.76531 2.78573 2.94715 2.60389C3.12899 2.42205 3.40456 2.27244 4.04846 2.18587C4.72247 2.09526 5.62604 2.09302 6.97117 2.09302H10.1107V5.23256C10.1107 5.81054 10.5792 6.27907 11.1572 6.27907C11.7352 6.27907 12.2037 5.81054 12.2037 5.23256V2.09302H14.2968V3.83721C14.2968 4.41519 14.7653 4.88372 15.3433 4.88372C15.9212 4.88372 16.3898 4.41519 16.3898 3.83721V2.09302H18.4828V5.23256C18.4828 5.81054 18.9514 6.27907 19.5293 6.27907C20.1073 6.27907 20.5758 5.81054 20.5758 5.23256V2.09302H22.6688V3.83721C22.6688 4.41519 23.1374 4.88372 23.7154 4.88372C24.2933 4.88372 24.7619 4.41519 24.7619 3.83721V2.09316C25.5748 2.09407 26.149 2.10059 26.5998 2.14644C27.0949 2.19681 27.3237 2.28586 27.4751 2.38698C27.6656 2.51422 27.829 2.67775 27.9562 2.8682C28.0574 3.01952 28.1464 3.24832 28.1968 3.74348C28.249 4.25614 28.2502 4.9286 28.2502 5.93023C28.2502 6.93187 28.249 7.60433 28.1968 8.11698C28.1464 8.61215 28.0574 8.84094 27.9562 8.99227C27.829 9.18272 27.6656 9.34624 27.4751 9.4735C27.3237 9.5746 27.0949 9.66366 26.5998 9.71403C26.0872 9.76619 25.4146 9.76744 24.413 9.76744H13.9479C13.927 9.76744 13.9062 9.76744 13.8855 9.76744C13.2815 9.76737 12.7278 9.7673 12.2774 9.82786C11.7814 9.89454 11.2571 10.0515 10.8259 10.4827C10.3947 10.9138 10.2378 11.4381 10.1711 11.9341C10.1106 12.3846 10.1106 12.9382 10.1107 13.5423C10.1107 13.5629 10.1107 13.5837 10.1107 13.6047V24.0698C10.1107 25.0713 10.1094 25.7439 10.0573 26.2566C10.0069 26.7516 9.91787 26.9805 9.81676 27.1319C9.6895 27.3223 9.52598 27.4857 9.33555 27.613C9.18422 27.7141 8.95541 27.8032 8.46024 27.8535C7.94759 27.9057 7.27513 27.907 6.27349 27.907C5.27186 27.907 4.5994 27.9057 4.08675 27.8535C3.59158 27.8032 3.36278 27.7141 3.21146 27.613C3.02101 27.4857 2.85749 27.3223 2.73024 27.1319C2.62912 26.9805 2.54007 26.7516 2.4897 26.2566C2.44385 25.8057 2.43733 25.2315 2.43643 24.4186H4.18047C4.75845 24.4186 5.22698 23.95 5.22698 23.3721C5.22698 22.7941 4.75845 22.3256 4.18047 22.3256H2.43629V20.2326H5.57582C6.1538 20.2326 6.62233 19.764 6.62233 19.186C6.62233 18.6081 6.1538 18.1395 5.57582 18.1395H2.43629V16.0465H4.18047C4.75845 16.0465 5.22698 15.578 5.22698 15C5.22698 14.422 4.75845 13.9535 4.18047 13.9535H2.43629V11.8605Z" fill="#C9A96E"/>
</svg>
