<svg width="32" height="32" viewBox="0 0 32 32" fill="none" xmlns="http://www.w3.org/2000/svg">
<path d="M9.40804 13.3053C9.77925 14.0425 9.85288 14.8942 9.61368 15.6842C9.37449 16.4742 8.84079 17.142 8.12299 17.5495C6.75878 18.0295 5.12172 16.9027 4.46825 15.0366C4.09639 14.2994 4.02223 13.4475 4.26113 12.6571C4.50002 11.8668 5.03367 11.1985 5.75162 10.7907C7.11583 10.3107 8.75288 11.4392 9.40804 13.3053ZM20.3908 26.5735C19.7955 26.5743 19.2058 26.4575 18.6558 26.2297C18.1058 26.002 17.6062 25.6678 17.1857 25.2463C16.8712 24.932 16.4447 24.7555 16 24.7555C15.5554 24.7555 15.1289 24.932 14.8144 25.2463C13.9624 26.0885 12.8118 26.5593 11.6139 26.5559C10.4159 26.5524 9.26802 26.075 8.42094 25.2279C7.57386 24.3809 7.09646 23.233 7.09301 22.035C7.08957 20.8371 7.56037 19.6865 8.40257 18.8345C9.4 17.8363 10.5844 17.0444 11.888 16.5042C13.1916 15.9639 14.5889 15.6858 16 15.6858C17.4112 15.6858 18.8085 15.9639 20.1121 16.5042C21.4157 17.0444 22.6001 17.8363 23.5975 18.8345C24.2313 19.4687 24.6629 20.2766 24.8376 21.156C25.0124 22.0354 24.9224 22.9469 24.5792 23.7752C24.236 24.6035 23.6549 25.3114 22.9094 25.8095C22.1638 26.3076 21.2874 26.5735 20.3908 26.5735ZM15.5453 10.2013C15.7592 12.4531 14.5971 14.4051 12.9516 14.56C11.3061 14.715 9.79878 13.0156 9.58656 10.7638C9.37267 8.51369 10.5348 6.56169 12.1802 6.40674C13.8257 6.25011 15.3314 7.94948 15.5453 10.2013ZM16.4548 10.2013C16.2409 12.4531 17.403 14.4051 19.0485 14.56C20.6939 14.715 22.1996 13.0156 22.4135 10.7638C22.6274 8.51369 21.4653 6.56169 19.8198 6.40674C18.1744 6.25011 16.667 7.94948 16.4548 10.2013ZM22.592 13.3036C22.2198 14.0412 22.1456 14.8937 22.3849 15.6844C22.6241 16.4752 23.1584 17.1436 23.8771 17.5512C25.2413 18.0295 26.8784 16.9027 27.5318 15.0366C27.9037 14.2994 27.9778 13.4475 27.7389 12.6571C27.5001 11.8668 26.9664 11.1985 26.2485 10.7907C24.8842 10.3107 23.2472 11.4375 22.592 13.3036Z" fill="#C9A96E"/>
</svg>
