<svg width="23" height="24" viewBox="0 0 23 24" fill="none" xmlns="http://www.w3.org/2000/svg">
<path d="M22.8516 18.3753C22.7435 18.1064 22.562 17.84 22.3046 17.6167C22.0299 17.3792 21.665 17.1252 21.2405 16.8515C20.6066 16.4437 19.8498 16.0065 19.1727 15.6448C18.8342 15.4639 18.5158 15.3022 18.2397 15.1721C17.9592 15.0412 17.7379 14.9439 17.5204 14.8782C17.3388 14.8239 17.152 14.7998 16.9706 14.7998C16.4231 14.8033 15.9363 15.0026 15.5285 15.289C15.1228 15.5794 14.7866 15.9702 14.5921 16.4406C14.5676 16.5006 14.544 16.547 14.5225 16.5855C13.9347 16.2399 12.4879 15.2601 10.3592 12.9561C8.89698 11.3732 8.05375 10.1831 7.58072 9.40344C7.3656 9.0478 7.22967 8.7819 7.14373 8.5984C7.18939 8.58528 7.24366 8.57212 7.3133 8.5603C7.90438 8.45563 8.42158 8.18534 8.81921 7.82264C9.01754 7.63999 9.18651 7.43191 9.31091 7.19764C9.43428 6.96373 9.5145 6.70049 9.5145 6.41928C9.5145 6.34399 9.50874 6.26861 9.49678 6.19242C9.47422 6.05312 9.43625 5.91602 9.38636 5.75349C9.21153 5.19327 8.87299 4.35844 8.49413 3.53452C8.30496 3.12322 8.10615 2.71807 7.9126 2.35671C7.71812 1.99446 7.53373 1.67997 7.34984 1.42858C7.08577 1.06768 6.71645 0.821506 6.34576 0.683955C5.97359 0.544697 5.60054 0.500404 5.26245 0.5C4.9474 0.5 4.65979 0.538543 4.4134 0.592854C4.28999 0.619987 4.17711 0.651522 4.07344 0.686606C3.96874 0.722498 3.87556 0.75929 3.7748 0.814004L3.74884 0.775911L3.75559 0.824067C3.71811 0.843788 3.63651 0.885835 3.53663 0.940595C3.09438 1.18326 2.22904 1.70099 1.45451 2.55639C0.680915 3.40834 -0.0024068 4.62864 6.3724e-06 6.18928C6.3724e-06 6.52215 0.0307373 6.86993 0.0965332 7.23133C0.815905 11.1752 2.8505 14.4336 5.1703 16.9447C7.4901 19.4554 10.6656 21.8382 14.8055 23.1531C15.5675 23.3949 16.2965 23.5 16.975 23.5C18.6067 23.4995 19.9114 22.8995 20.8156 22.2898C21.2699 21.984 21.629 21.6735 21.8917 21.422C22.0228 21.2964 22.1299 21.1855 22.211 21.0988C22.2907 21.0138 22.3517 20.9451 22.3628 20.9337C22.4584 20.8307 22.5246 20.7322 22.5947 20.6144C22.7945 20.2662 22.9952 19.7646 23 19.1667C22.9999 18.9149 22.9601 18.6447 22.8516 18.3753ZM1.47505 6.18932C1.47554 5.50166 1.64121 4.92041 1.89622 4.41535C2.27701 3.65981 2.87099 3.07722 3.40548 2.67076C3.67202 2.46754 3.92171 2.30941 4.11811 2.19464C4.21606 2.13723 4.30107 2.09127 4.36878 2.05493C4.43694 2.01854 4.48304 1.99532 4.53061 1.96949C4.54066 1.96293 4.65255 1.92178 4.78749 1.89456C4.92534 1.86612 5.0953 1.8451 5.26245 1.84555C5.45501 1.84465 5.64033 1.87313 5.7829 1.92784C5.9275 1.98391 6.03072 2.05313 6.12483 2.17887C6.25978 2.36067 6.45903 2.6988 6.66361 3.09213C6.97289 3.68519 7.3066 4.4149 7.56831 5.05091C7.69891 5.36846 7.81228 5.66329 7.89487 5.90245C7.9779 6.13811 8.0303 6.33298 8.037 6.38469L8.03942 6.41928C8.03991 6.46393 8.02602 6.53055 7.98278 6.61244C7.9194 6.73463 7.78731 6.88269 7.6145 7.00003C7.44208 7.11831 7.23366 7.20505 7.03775 7.23834C6.77555 7.28389 6.55083 7.35091 6.35635 7.44112C6.06534 7.57382 5.84441 7.77098 5.72198 7.97421C5.59714 8.17743 5.57173 8.36584 5.57217 8.47706L5.57601 8.55325L5.59906 8.66538C5.6322 8.7762 6.19738 10.5396 9.23128 13.8234C12.2652 17.1072 14.0746 17.914 14.1889 17.9626L14.3137 18.0042C14.3637 18.0161 14.4487 18.0318 14.5639 18.0318C14.7655 18.0354 15.0705 17.9705 15.3346 17.7778C15.6011 17.5869 15.8148 17.3004 15.9738 16.9123C16.0578 16.7034 16.2336 16.4927 16.4352 16.3508C16.636 16.2054 16.8535 16.1423 16.9707 16.1458L17.0643 16.1576C17.0993 16.1677 17.2065 16.2071 17.339 16.2658C17.8144 16.4726 18.6457 16.9084 19.4293 17.3652C19.8226 17.5939 20.2068 17.8291 20.5342 18.0446C20.8612 18.2588 21.135 18.4581 21.2871 18.5908C21.3769 18.6696 21.4288 18.7476 21.4672 18.8409C21.5052 18.9338 21.5248 19.0437 21.5248 19.1668C21.5258 19.3595 21.4725 19.5798 21.401 19.7577C21.3659 19.8462 21.3265 19.9241 21.2939 19.9802L21.2526 20.045L21.2439 20.0564C21.2002 20.1033 21.1584 20.1511 21.0888 20.2255C20.853 20.4786 20.356 20.971 19.6501 21.3906C18.9433 21.8115 18.0473 22.1541 16.9749 22.1545C16.4616 22.1541 15.9036 22.0766 15.2904 21.882C11.457 20.6652 8.48984 18.4493 6.29873 16.0775C4.10757 13.7053 2.21702 10.6628 1.55148 7.01067C1.49864 6.72016 1.47505 6.44731 1.47505 6.18932Z" fill="#182842"/>
</svg>
