<svg width="18" height="24" viewBox="0 0 18 24" fill="none" xmlns="http://www.w3.org/2000/svg">
<path d="M-5.66375e-05 8.99996C-5.66375e-05 7.36796 0.399943 5.86396 1.19994 4.48796C1.99994 3.11196 3.09594 2.02396 4.48794 1.22396C5.87994 0.423965 7.38394 0.0159645 8.99994 -3.54511e-05C10.6159 -0.0160355 12.1199 0.391965 13.5119 1.22396C14.9039 2.05596 15.9999 3.14396 16.7999 4.48796C17.5999 5.83196 17.9999 7.33596 17.9999 8.99996C17.9999 9.68796 17.8319 10.488 17.4959 11.4C17.1599 12.312 16.7359 13.232 16.2239 14.16C15.7119 15.088 15.1279 16.032 14.4719 16.992C13.8159 17.952 13.1759 18.848 12.5519 19.68C11.9279 20.512 11.3439 21.248 10.7999 21.888C10.2559 22.528 9.82394 23.048 9.50394 23.448L8.99994 24C8.87194 23.872 8.70394 23.68 8.49594 23.424C8.28794 23.168 7.86394 22.664 7.22394 21.912C6.58394 21.16 5.99194 20.408 5.44794 19.656C4.90394 18.904 4.27194 18.024 3.55194 17.016C2.83194 16.008 2.23994 15.048 1.77594 14.136C1.31194 13.224 0.887943 12.32 0.503943 11.424C0.119943 10.528 -0.0480566 9.71996 -5.66375e-05 8.99996ZM2.99994 8.99996C2.99994 10.664 3.58394 12.08 4.75194 13.248C5.91994 14.416 7.33594 15 8.99994 15C10.6639 15 12.0799 14.416 13.2479 13.248C14.4159 12.08 14.9999 10.664 14.9999 8.99996C14.9999 7.33596 14.4159 5.92796 13.2479 4.77596C12.0799 3.62396 10.6639 3.03196 8.99994 2.99996C7.33594 2.96796 5.91994 3.55996 4.75194 4.77596C3.58394 5.99196 2.99994 7.39996 2.99994 8.99996Z" fill="#C9A96E"/>
</svg>
