<svg width="20" height="21" viewBox="0 0 20 21" fill="none" xmlns="http://www.w3.org/2000/svg">
<path fill-rule="evenodd" clip-rule="evenodd" d="M1.05453 6.38666L2.03245 17.9067C2.11603 19.2006 3.17697 20.2149 4.47341 20.2401H15.5364C16.8324 20.2142 17.8926 19.2001 17.9761 17.9067L18.954 6.38666C19.0294 5.6871 18.8086 4.98792 18.3451 4.45854C17.8816 3.92916 17.2177 3.61788 16.5143 3.6001H3.49421C2.79082 3.61788 2.12697 3.92916 1.66349 4.45854C1.2 4.98792 0.979185 5.6871 1.05453 6.38666Z" stroke="#C9A96E" stroke-width="1.5" stroke-linecap="round" stroke-linejoin="round"/>
<path d="M15.3798 3.16685C15.1405 3.63999 15.3301 4.2175 15.8032 4.45677C16.2764 4.69603 16.8539 4.50645 17.0932 4.03331L15.3798 3.16685ZM14.8362 1.04008L14.9334 0.0850189C14.9012 0.0817293 14.8687 0.0800781 14.8362 0.0800781V1.04008ZM5.17217 1.04008V0.0800781C5.13967 0.0800781 5.1072 0.0817293 5.07488 0.0850189L5.17217 1.04008ZM2.91516 4.03331C3.15443 4.50645 3.73194 4.69603 4.20508 4.45677C4.67822 4.2175 4.8678 3.63999 4.62854 3.16685L2.91516 4.03331ZM7.76416 8.72008C7.76416 8.1899 7.33433 7.76008 6.80416 7.76008C6.27398 7.76008 5.84417 8.1899 5.84417 8.72008H7.76416ZM14.1642 8.72008C14.1642 8.1899 13.7343 7.76008 13.2042 7.76008C12.674 7.76008 12.2442 8.1899 12.2442 8.72008H14.1642ZM17.0932 4.03331C17.4989 3.23081 17.4836 2.27992 17.0521 1.49097L15.3676 2.41237C15.4956 2.6465 15.5002 2.92869 15.3798 3.16685L17.0932 4.03331ZM17.0521 1.49097C16.6205 0.702005 15.8282 0.176168 14.9334 0.0850189L14.7389 1.99514C15.0043 2.02218 15.2395 2.17824 15.3676 2.41237L17.0521 1.49097ZM14.8362 0.0800781H5.17217V2.00008H14.8362V0.0800781ZM5.07488 0.0850189C4.18022 0.176168 3.38784 0.702005 2.95627 1.49097L4.64074 2.41237C4.7688 2.17824 5.00397 2.02218 5.26946 1.99514L5.07488 0.0850189ZM2.95627 1.49097C2.52471 2.27992 2.50934 3.23081 2.91516 4.03331L4.62854 3.16685C4.50811 2.92869 4.51266 2.6465 4.64074 2.41237L2.95627 1.49097ZM5.84417 8.72008V9.36008H7.76416V8.72008H5.84417ZM5.84417 9.36008C5.84417 11.6575 7.70669 13.5201 10.0042 13.5201V11.6001C8.76704 11.6001 7.76416 10.5972 7.76416 9.36008H5.84417ZM10.0042 13.5201C12.3016 13.5201 14.1642 11.6575 14.1642 9.36008H12.2442C12.2442 10.5972 11.2413 11.6001 10.0042 11.6001V13.5201ZM14.1642 9.36008V8.72008H12.2442V9.36008H14.1642Z" fill="#C9A96E"/>
</svg>
