<svg width="30" height="30" viewBox="0 0 30 30" fill="none" xmlns="http://www.w3.org/2000/svg">
<path d="M22.1395 9.79359C22.372 9.07031 22.5 8.30016 22.5 7.5C22.5 3.35812 19.1423 0 15 0C10.8577 0 7.5 3.35812 7.5 7.5C7.5 8.30016 7.62797 9.07031 7.86047 9.79359C4.92422 10.8103 2.8125 13.5928 2.8125 16.875C2.8125 21.0169 6.17016 24.375 10.3125 24.375C11.3086 24.375 12.2559 24.1734 13.125 23.82V29.5312C13.125 29.7905 13.3345 30 13.5938 30H16.4062C16.6655 30 16.875 29.7905 16.875 29.5312V23.82C17.7441 24.1734 18.6914 24.375 19.6875 24.375C23.8298 24.375 27.1875 21.0169 27.1875 16.875C27.1875 13.5928 25.0758 10.8103 22.1395 9.79359ZM15.9375 29.0625H14.0625V23.3634C14.3906 23.1727 14.7052 22.9608 15 22.7245C15.2948 22.9608 15.6094 23.1727 15.9375 23.3634V29.0625ZM19.6875 23.4375C18.322 23.4375 17.0564 23.018 16.0064 22.3041L19.0922 19.2188H21.0938C21.353 19.2188 21.5625 19.0092 21.5625 18.75C21.5625 18.4908 21.353 18.2812 21.0938 18.2812H19.2188V16.4062C19.2188 16.147 19.0092 15.9375 18.75 15.9375C18.4908 15.9375 18.2812 16.147 18.2812 16.4062V18.7022L15.4688 21.5152V21.0938V15.6628L17.2116 13.92C17.3948 13.7367 17.3953 13.44 17.212 13.2567C17.0288 13.0734 16.7255 13.0805 16.5422 13.2638L15 14.8059L13.4381 13.2441C13.2548 13.0608 13.0003 13.103 12.8175 13.2863C12.6337 13.47 12.6136 13.7461 12.7969 13.9294L14.5312 15.6637V21.0938V21.5147L11.7188 18.7036V16.4062C11.7188 16.147 11.5092 15.9375 11.25 15.9375C10.9908 15.9375 10.7812 16.147 10.7812 16.4062V18.2812H8.90625C8.64703 18.2812 8.4375 18.4908 8.4375 18.75C8.4375 19.0092 8.64703 19.2188 8.90625 19.2188H10.9078L13.9936 22.3041C12.9436 23.018 11.678 23.4375 10.3125 23.4375C6.68813 23.4375 3.75 20.4994 3.75 16.875C3.75 13.6542 6.07125 10.9814 9.13125 10.4241C8.69109 9.54281 8.4375 8.55188 8.4375 7.5C8.4375 3.87563 11.3756 0.9375 15 0.9375C18.6244 0.9375 21.5625 3.87563 21.5625 7.5C21.5625 8.55188 21.3089 9.54281 20.8687 10.4241C23.9288 10.9814 26.25 13.6542 26.25 16.875C26.25 20.4994 23.3119 23.4375 19.6875 23.4375Z" fill="#B89355"/>
</svg>
